<?xml version="1.0" encoding="UTF-8"?>
<svg id="Layer_2" data-name="Layer 2" xmlns="http://www.w3.org/2000/svg" viewBox="0 0 447.84 167.87">
  <defs>
    <style>
      .cls-1 {
        fill: #efa827;
      }

      .cls-2 {
        fill: #404143;
      }
    </style>
  </defs>
  <g id="Layer_1-2" data-name="Layer 1">
    <g>
      <polygon class="cls-2" points="353.29 27.96 353.29 25.31 355.94 25.31 417.13 25.31 417.13 0 327.98 0 327.98 121.24 399.88 121.24 399.88 95.93 355.94 95.93 353.29 95.93 353.29 93.28 353.29 27.96"/>
      <polygon class="cls-1" points="422.54 73.27 422.54 75.93 422.54 146.71 447.84 132.71 447.84 47.96 446.37 47.96 419.88 47.96 375.95 47.96 375.95 73.27 419.88 73.27 422.54 73.27"/>
      <g>
        <path class="cls-2" d="M12.72,61.07c-2.24,0-4,.55-5.28,1.64-1.28,1.1-1.92,2.67-1.92,4.72,0,1.38.29,2.51.87,3.4.58.88,1.32,1.56,2.2,2.04.88.48,1.86.8,2.94.97,1.07.17,2.12.25,3.15.25,2.52,0,4.71-.24,6.57-.71l.98,4.43c-1.21.38-2.44.66-3.67.82-1.24.17-2.62.25-4.16.25-4.57,0-8.11-.98-10.63-2.93-2.52-1.95-3.78-4.77-3.78-8.44,0-3.43,1.05-6.16,3.15-8.18,2.1-2.02,5.03-3.04,8.81-3.04h6.92c2,0,3.64-.18,4.89-.54,1.26-.36,2.25-.95,2.97-1.79.72-.83,1.21-1.94,1.47-3.32.26-1.38.38-3.12.38-5.22,0-1.57-.2-2.99-.59-4.25-.4-1.26-1.07-2.35-2.03-3.25-.96-.9-2.23-1.61-3.81-2.11-1.59-.5-3.57-.75-5.94-.75-.93,0-2.1.08-3.5.25-1.4.17-2.77.51-4.13,1.04l-1.26-4.43c2.19-.81,4.03-1.31,5.52-1.5,1.49-.19,2.87-.29,4.13-.29,11.79,0,17.69,5.12,17.69,15.37,0,1.14-.05,2.22-.14,3.22-.09,1-.21,1.93-.35,2.79.51,1.53,1.36,2.71,2.55,3.54,1.19.83,2.46,1.25,3.81,1.25.93,0,1.5.23,1.71.68.21.45.31,1.06.31,1.82,0,.81-.09,1.39-.28,1.75-.19.36-.47.54-.84.54-.75,0-1.53-.08-2.34-.25-.82-.17-1.64-.44-2.48-.82-.84-.38-1.63-.87-2.38-1.47-.75-.6-1.38-1.3-1.89-2.11-1.07,1.67-2.59,2.86-4.54,3.57-1.96.71-4.47,1.07-7.55,1.07h-7.55ZM13.37,67.73c0-.86.28-1.58.85-2.15.57-.58,1.27-.87,2.11-.87s1.53.29,2.08.87c.55.58.82,1.3.82,2.15s-.27,1.58-.82,2.16c-.54.58-1.24.87-2.08.87s-1.54-.29-2.11-.87c-.57-.58-.85-1.3-.85-2.16Z"/>
        <path class="cls-2" d="M40.62,56.28c2.98,0,5.17-.67,6.57-2,1.4-1.33,2.1-3.53,2.1-6.58v-17.16h5.73v18.87c0,2.34.68,4.06,2.03,5.18,1.35,1.12,3.24,1.68,5.66,1.68.79,0,1.33.18,1.61.54.28.36.42,1.01.42,1.97,0,.81-.09,1.39-.28,1.75-.19.36-.47.54-.84.54-2.24,0-4.26-.37-6.08-1.11-1.82-.74-3.24-1.97-4.26-3.68-2.1,3.19-6.01,4.79-11.75,4.79-1.16,0-1.96-.18-2.38-.54s-.63-1.04-.63-2.04c0-1.48.7-2.22,2.1-2.22ZM44.33,70.22c0-.95.31-1.75.94-2.4.63-.64,1.41-.97,2.34-.97s1.7.32,2.31.97c.61.64.91,1.44.91,2.4s-.3,1.75-.91,2.39c-.61.64-1.38.97-2.31.97s-1.71-.32-2.34-.97c-.63-.64-.94-1.44-.94-2.39ZM53.07,70.22c0-.95.31-1.75.94-2.4.63-.64,1.41-.97,2.34-.97s1.7.32,2.31.97c.61.64.91,1.44.91,2.4s-.3,1.75-.91,2.39c-.61.64-1.38.97-2.31.97s-1.71-.32-2.34-.97c-.63-.64-.94-1.44-.94-2.39Z"/>
        <path class="cls-2" d="M62.71,56.28c2.98,0,5.18-.67,6.61-2,1.42-1.33,2.13-3.53,2.13-6.58V8.53h5.73v40.89c0,2.29.65,4,1.96,5.15,1.3,1.14,3.17,1.72,5.59,1.72.65,0,1.15.14,1.5.43.35.29.52.98.52,2.07,0,.9-.1,1.51-.31,1.82-.21.31-.48.47-.8.47-2.19,0-4.19-.37-6.01-1.11-1.82-.74-3.24-1.97-4.26-3.68-2.1,3.19-6.01,4.79-11.75,4.79-1.16,0-1.96-.18-2.38-.54-.42-.36-.63-1.04-.63-2.04,0-1.48.7-2.22,2.1-2.22Z"/>
        <path class="cls-2" d="M99.42,56.28c1.96,0,3.57-.18,4.82-.54,1.26-.36,2.25-.97,2.97-1.82.72-.86,1.21-1.97,1.47-3.32.26-1.36.38-3.09.38-5.18,0-1.57-.2-2.99-.59-4.25-.4-1.26-1.07-2.35-2.03-3.25-.96-.9-2.23-1.61-3.81-2.11-1.59-.5-3.57-.75-5.94-.75-.93,0-2.09.08-3.46.25-1.38.17-2.76.51-4.16,1.04l-1.26-4.43c2.14-.81,4.03-1.31,5.66-1.5,1.63-.19,2.98-.29,4.06-.29,11.7,0,17.55,5.12,17.55,15.37,0,2.34-.16,4.31-.49,5.93.23.81.59,1.53,1.08,2.14.49.62,1.04,1.13,1.64,1.54.61.41,1.23.7,1.89.89.65.19,1.28.29,1.89.29.7-.05,1.21.1,1.54.43.33.33.49,1.03.49,2.07,0,.9-.1,1.51-.31,1.82-.21.31-.48.47-.8.47-1.63,0-3.31-.37-5.03-1.11-1.72-.74-3.12-1.92-4.19-3.54-1.07,1.67-2.58,2.86-4.51,3.57-1.93.71-4.42,1.07-7.45,1.07h-15.17c-1.07,0-1.84-.17-2.31-.5-.47-.33-.7-.95-.7-1.86,0-.71.16-1.3.49-1.75.33-.45.86-.68,1.61-.68h14.68ZM94.88,20.18c0-.95.31-1.75.94-2.39.63-.64,1.41-.97,2.34-.97s1.7.32,2.31.97c.61.64.91,1.44.91,2.39s-.3,1.75-.91,2.39c-.61.64-1.38.97-2.31.97s-1.71-.32-2.34-.97c-.63-.64-.94-1.44-.94-2.39Z"/>
        <path class="cls-2" d="M121.09,56.28c2.94,0,5.13-.67,6.57-2,1.44-1.33,2.17-3.53,2.17-6.58V8.53h5.73v40.24c0,8.2-4.52,12.29-13.56,12.29-1.12,0-1.91-.17-2.38-.5-.47-.33-.7-.95-.7-1.86,0-.71.15-1.3.45-1.75.3-.45.87-.68,1.71-.68Z"/>
        <path class="cls-2" d="M153.18,8.53v52.54h-5.73V8.53h5.73Z"/>
        <path class="cls-2" d="M180.24,73.58c-.65,0-1.36-.03-2.13-.11-.77-.07-1.48-.18-2.13-.32l.77-4.86c.51.1,1.04.17,1.57.21.54.05,1.06.07,1.57.07,2.24,0,3.86-.7,4.86-2.11,1-1.41,1.5-3.68,1.5-6.83v-29.09h5.73v28.31c0,4.91-.93,8.59-2.8,11.04-1.87,2.45-4.85,3.68-8.95,3.68Z"/>
        <path class="cls-2" d="M218.62,58.78c0,.67-.07,1.21-.21,1.64s-.44.64-.91.64c-2.1,0-3.97-.15-5.63-.47-1.66-.31-3.11-.87-4.37-1.68-1.26-.81-2.24-1.92-2.94-3.32-.7-1.4-1.05-3.23-1.05-5.47V8.53h5.73v40.74c0,1.38.2,2.53.59,3.43.4.91.95,1.63,1.68,2.18.72.55,1.51.92,2.38,1.11.86.19,1.76.29,2.69.29.84,0,1.39.18,1.64.54.26.36.38,1.01.38,1.97Z"/>
        <path class="cls-2" d="M217.5,61.07c-1.16,0-1.96-.18-2.38-.54s-.63-1.04-.63-2.04c0-1.48.7-2.22,2.1-2.22h1.82c1.49,0,2.77-.54,3.85-1.61,1.07-1.07,1.65-2.51,1.75-4.32.23-6.53,1.62-11.53,4.16-15.01,2.54-3.48,6.21-5.22,11.01-5.22,2.7,0,4.95.45,6.75,1.36,1.79.9,3.23,2.08,4.3,3.54,1.07,1.45,1.84,3.09,2.31,4.9.47,1.81.7,3.62.7,5.43s-.21,3.6-.63,5.22c.19,2.1.98,3.57,2.38,4.43,1.4.86,3.17,1.29,5.31,1.29.93,0,1.51.2,1.75.61.23.41.35,1.04.35,1.9,0,.9-.1,1.51-.31,1.82-.21.31-.5.47-.87.47-2.24,0-4.35-.37-6.33-1.11-1.98-.74-3.48-2.2-4.51-4.4-1.21,1.81-2.75,3.23-4.61,4.25-1.87,1.03-3.99,1.54-6.36,1.54-1.87,0-3.76-.37-5.7-1.11-1.93-.74-3.93-2.01-5.98-3.82-.51,1.24-1.33,2.32-2.45,3.25-1.12.93-2.84,1.39-5.17,1.39h-2.59ZM239.11,35.12c-2.7,0-4.94,1.34-6.71,4-1.77,2.67-2.82,6.72-3.15,12.15,1.77,1.67,3.45,2.93,5.03,3.79,1.58.86,3.36,1.29,5.31,1.29,1.58,0,2.89-.36,3.92-1.07,1.02-.72,1.83-1.61,2.41-2.68.58-1.07.98-2.23,1.19-3.47.21-1.24.31-2.4.31-3.5,0-3.62-.73-6.28-2.2-7.97-1.47-1.69-3.51-2.54-6.12-2.54Z"/>
        <path class="cls-2" d="M269.94,56.28c-1.63-1.62-2.8-3.44-3.5-5.47-.7-2.03-1.05-4.04-1.05-6.04s.36-3.97,1.08-5.75c.72-1.79,1.78-3.35,3.18-4.68,1.4-1.33,3.13-2.37,5.21-3.11,2.07-.74,4.46-1.11,7.17-1.11,1.12,0,2.44.12,3.95.36,1.51.24,2.85.55,4.02.93l-.98,4.57c-.61-.19-1.48-.39-2.62-.61-1.14-.21-2.34-.32-3.6-.32-3.78,0-6.62.94-8.53,2.82-1.91,1.88-2.87,4.3-2.87,7.26,0,1.24.2,2.53.59,3.86.4,1.33,1.06,2.54,1.99,3.61.93,1.07,2.2,1.95,3.81,2.64,1.61.69,3.62,1.04,6.05,1.04h7.9v4.79h-30.83c-.88,0-1.56-.17-2.03-.5-.47-.33-.7-.95-.7-1.86,0-.81.14-1.42.42-1.82.28-.4.84-.61,1.68-.61h9.65Z"/>
        <path class="cls-2" d="M299.94,77.23c-.42-.81-.73-1.58-.94-2.32-.21-.74-.31-1.37-.31-1.89,0-2.05.63-3.75,1.89-5.11,1.26-1.36,3.15-2.04,5.66-2.04.61,0,1.27.05,1.99.14.72.09,1.36.24,1.92.43l-.7,3.07c-.42-.14-.9-.26-1.43-.36-.54-.1-1.08-.14-1.64-.14-1.35,0-2.38.37-3.08,1.11-.7.74-1.05,1.66-1.05,2.75s.35,2.16,1.05,3.04c.7.88,1.93,1.32,3.71,1.32h3.78v3.22h-13.77v-3.22h2.94ZM307.28,8.53v52.54h-5.73V8.53h5.73Z"/>
      </g>
      <g>
        <g>
          <path class="cls-2" d="M238.33,162.38c-.81,0-1.52-.08-2.14-.24-.62-.16-1.07-.5-1.37-1.01-.27.12-.63.25-1.08.38-.45.13-.99.19-1.61.19-.49,0-.97-.06-1.46-.19-.49-.13-.92-.34-1.31-.65-.38-.3-.7-.7-.93-1.2-.24-.49-.35-1.1-.35-1.83,0-1.3.4-2.3,1.19-3.02.79-.71,1.88-1.07,3.27-1.07h3.67v5.73c0,.62.17,1.04.51,1.25.34.21.9.31,1.68.31h.16c.23,0,.38.05.47.15.08.1.12.29.12.56s-.02.45-.07.53-.13.12-.25.12h-.49ZM229.7,157.82c0,.53.09.95.26,1.28.18.32.4.57.66.75.26.18.54.29.84.34.3.05.57.08.81.08.47,0,.9-.05,1.3-.14.39-.09.71-.22.97-.36v-4.7h-1.82c-.38,0-.75.03-1.11.1-.36.07-.69.2-.97.41-.28.2-.51.48-.68.84-.17.36-.25.83-.25,1.41ZM230.35,150.8c0-.27.09-.5.27-.68.18-.18.41-.27.68-.27s.49.09.67.27c.18.18.26.41.26.68s-.09.5-.26.68c-.18.18-.4.27-.67.27s-.5-.09-.68-.27c-.18-.18-.27-.41-.27-.68ZM232.88,150.8c0-.27.09-.5.27-.68.18-.18.41-.27.68-.27s.49.09.67.27c.18.18.26.41.26.68s-.09.5-.26.68c-.18.18-.4.27-.67.27s-.5-.09-.68-.27c-.18-.18-.27-.41-.27-.68Z"/>
          <path class="cls-2" d="M238.55,161.03c.86,0,1.5-.19,1.9-.57.4-.38.61-1,.61-1.86v-4.86h1.66v5.35c0,.66.19,1.15.59,1.47.39.32.94.48,1.64.48.23,0,.38.05.47.15.08.1.12.29.12.56,0,.23-.03.4-.08.5-.05.1-.14.15-.24.15-.65,0-1.23-.1-1.76-.31-.53-.21-.94-.56-1.24-1.04-.61.9-1.74,1.36-3.4,1.36-.34,0-.57-.05-.69-.15-.12-.1-.18-.29-.18-.58,0-.42.2-.63.61-.63ZM239.62,164.98c0-.27.09-.5.27-.68s.41-.27.68-.27.49.09.67.27c.18.18.26.41.26.68s-.09.5-.26.68c-.18.18-.4.27-.67.27s-.5-.09-.68-.27c-.18-.18-.27-.41-.27-.68ZM242.16,164.98c0-.27.09-.5.27-.68s.41-.27.68-.27.49.09.67.27c.18.18.26.41.26.68s-.09.5-.26.68c-.18.18-.4.27-.67.27s-.5-.09-.68-.27c-.18-.18-.27-.41-.27-.68Z"/>
          <path class="cls-2" d="M245.82,161.03c.35,0,.64-.06.87-.18.23-.12.41-.28.55-.49.13-.2.23-.44.28-.71.05-.27.08-.55.08-.85v-3.18h1.66v3.46c0,.63.17,1.12.52,1.45.34.33.79.5,1.35.5.35,0,.64-.06.87-.18.23-.12.41-.28.55-.49s.23-.44.28-.71c.05-.27.08-.55.08-.85v-3.18h1.66v3.46c0,.62.17,1.1.51,1.44.34.34.79.51,1.36.51.38,0,.68-.09.9-.26.22-.18.39-.39.5-.64.11-.25.18-.51.21-.78.03-.27.05-.52.05-.75v-4.86h1.66v5.16c0,.34-.04.7-.11,1.09s-.22.77-.44,1.13-.53.67-.94.9c-.41.24-.93.35-1.55.35s-1.12-.11-1.58-.34c-.46-.23-.8-.55-1.01-.95-.08.12-.2.26-.34.42-.15.16-.33.3-.55.42-.22.13-.49.24-.81.32-.32.09-.7.13-1.13.13-.61,0-1.12-.12-1.54-.35-.42-.24-.73-.55-.93-.94-.09.15-.21.29-.35.44s-.32.28-.54.4c-.22.13-.49.24-.81.32s-.7.13-1.13.13h-.77c-.38,0-.65-.05-.8-.15-.16-.1-.23-.27-.23-.52,0-.46.26-.69.77-.69h.87Z"/>
          <path class="cls-2" d="M266.14,161.03c.45,0,.82-.05,1.11-.14s.53-.24.71-.44c.18-.2.3-.45.38-.75.07-.3.11-.67.11-1.1v-.47c0-.46-.05-.88-.15-1.26-.1-.38-.29-.7-.56-.97-.27-.27-.63-.47-1.08-.61-.45-.14-1.03-.2-1.73-.2h-1.46v-1.36h2.03c1.55,0,2.71.35,3.47,1.04.76.7,1.14,1.69,1.14,2.97v1.34c0,.26.04.5.13.73.09.23.21.44.38.62.16.18.36.33.61.44.24.11.51.16.79.16.19-.01.33.02.44.11s.15.29.15.6c0,.23-.03.4-.08.5-.05.1-.13.15-.24.15-.2,0-.43-.02-.68-.07-.25-.05-.5-.12-.74-.22-.24-.1-.47-.23-.69-.4s-.4-.36-.55-.59c-.27.42-.66.74-1.16.95-.5.22-1.15.32-1.94.32h-4.31v-1.36h3.93Z"/>
          <path class="cls-2" d="M272.01,161.03c.86,0,1.5-.19,1.9-.57.4-.38.61-1,.61-1.86v-4.86h1.66v5.35c0,.66.19,1.15.59,1.47.39.32.94.48,1.64.48.23,0,.38.05.47.15.08.1.12.29.12.56,0,.23-.03.4-.08.5-.05.1-.14.15-.24.15-.65,0-1.23-.1-1.76-.31-.53-.21-.94-.56-1.24-1.04-.61.9-1.74,1.36-3.4,1.36-.34,0-.57-.05-.69-.15-.12-.1-.18-.29-.18-.58,0-.42.2-.63.61-.63ZM274.4,150.8c0-.27.09-.5.27-.68.18-.18.41-.27.68-.27s.49.09.67.27c.18.18.26.41.26.68s-.09.5-.26.68c-.18.18-.4.27-.67.27s-.5-.09-.68-.27-.27-.41-.27-.68Z"/>
          <path class="cls-2" d="M278.68,162.38c-.32,0-.58-.04-.76-.13-.18-.09-.27-.27-.27-.54,0-.46.26-.69.77-.69h2.17v-2.67c0-.73.09-1.39.27-1.98.18-.59.45-1.08.79-1.49.34-.4.76-.72,1.25-.94.49-.22,1.03-.33,1.64-.33.73,0,1.34.12,1.83.34.49.23.89.54,1.2.92s.52.83.66,1.35c.13.51.2,1.05.2,1.62,0,.74-.1,1.37-.31,1.88-.21.51-.44.95-.68,1.3h2.74c.27,0,.44.06.5.19s.09.3.09.52c0,.24-.02.41-.06.51-.04.09-.13.14-.26.14h-2.86c.26.31.45.66.57,1.04.12.39.18.72.18,1,0,.39-.07.77-.22,1.12s-.38.68-.68.96c-.3.28-.69.51-1.16.68-.47.17-1.03.25-1.68.25-1.28,0-2.27-.32-2.96-.95-.69-.63-1.03-1.6-1.03-2.9v-1.21h-1.9ZM284.27,161.03c.47,0,.87-.07,1.2-.22.33-.15.6-.36.8-.64.2-.28.35-.6.44-.97.09-.37.13-.78.13-1.23,0-.97-.21-1.7-.64-2.2s-.98-.74-1.65-.74c-.28,0-.57.05-.85.16-.28.11-.54.29-.76.56-.22.26-.4.61-.54,1.03-.14.43-.2.95-.2,1.57v2.67h2.07ZM286.78,164.25c0-.23-.04-.46-.11-.68s-.19-.42-.36-.6c-.17-.18-.39-.32-.66-.43-.27-.11-.59-.16-.97-.16h-2.47v1.13c0,.88.2,1.52.61,1.91.4.4,1.03.6,1.86.6.4,0,.74-.05,1.01-.15.27-.1.49-.23.65-.39.16-.16.28-.35.34-.57s.1-.44.1-.67Z"/>
          <path class="cls-2" d="M290.16,161.03c.85,0,1.49-.19,1.9-.57.42-.38.63-1,.63-1.86v-11.1h1.66v11.4c0,2.32-1.31,3.48-3.93,3.48-.32,0-.55-.05-.69-.14-.13-.09-.2-.27-.2-.53,0-.2.04-.37.13-.5s.25-.19.5-.19Z"/>
          <path class="cls-2" d="M299.46,147.49v14.89h-1.66v-14.89h1.66Z"/>
          <path class="cls-2" d="M311.86,162.38c-.65,0-1.25-.07-1.81-.21-.56-.14-1.05-.36-1.46-.67-.41-.3-.74-.7-.97-1.18s-.35-1.06-.35-1.73c0-.45.05-.96.16-1.55.11-.59.28-1.16.53-1.71l1.44.43c-.19.55-.32,1.06-.38,1.53s-.1.86-.1,1.19c0,.9.29,1.56.87,1.95.58.4,1.35.6,2.31.6h7.17c.86,0,1.45-.19,1.76-.57.31-.38.47-1,.47-1.86v-4.86h1.66v5.16c0,1.16-.28,2.03-.84,2.61-.56.58-1.49.87-2.79.87h-7.66ZM312.85,151.99c0-.27.09-.5.27-.68.18-.18.41-.27.68-.27s.49.09.67.27c.18.18.26.41.26.68s-.09.5-.26.68c-.18.18-.4.27-.67.27s-.5-.09-.68-.27-.27-.41-.27-.68ZM315.38,151.99c0-.27.09-.5.27-.68s.41-.27.68-.27.49.09.67.27c.18.18.26.41.26.68s-.09.5-.26.68c-.18.18-.4.27-.67.27s-.5-.09-.68-.27c-.18-.18-.27-.41-.27-.68Z"/>
          <path class="cls-2" d="M328.14,147.49v14.89h-1.66v-14.89h1.66Z"/>
          <path class="cls-2" d="M330.71,165.93c-.19,0-.39-.01-.62-.03-.22-.02-.43-.05-.62-.09l.22-1.38c.15.03.3.05.45.06s.31.02.46.02c.65,0,1.12-.2,1.41-.6s.44-1.04.44-1.93v-8.24h1.66v8.02c0,1.39-.27,2.43-.81,3.13-.54.7-1.4,1.04-2.59,1.04Z"/>
          <path class="cls-2" d="M341.84,161.73c0,.19-.02.34-.06.47-.04.12-.13.18-.26.18-.61,0-1.15-.04-1.63-.13s-.9-.25-1.27-.48c-.36-.23-.65-.54-.85-.94s-.3-.92-.3-1.55v-11.79h1.66v11.55c0,.39.06.72.17.97.12.26.28.46.49.62.21.16.44.26.69.31.25.05.51.08.78.08.24,0,.4.05.48.15.07.1.11.29.11.56Z"/>
          <path class="cls-2" d="M342.12,161.03c.38,0,.68-.07.91-.2s.4-.3.53-.5.21-.43.26-.69c.05-.26.08-.54.08-.84v-3.18h1.66v3.46c0,.62.17,1.1.51,1.44.34.34.79.51,1.36.51.35,0,.64-.06.87-.18.23-.12.41-.28.55-.49s.23-.44.28-.71c.05-.27.08-.55.08-.85v-3.18h1.66v3.46c0,.63.17,1.12.51,1.45.34.33.79.5,1.36.5.35,0,.64-.08.87-.24.23-.16.4-.37.52-.63.12-.26.19-.52.22-.8.03-.28.05-.53.05-.76v-4.86h1.66v5.16c0,.73.17,1.27.51,1.61.34.34.89.52,1.66.52.26,0,.42.06.49.17.07.11.1.3.1.56,0,.22-.03.37-.08.47-.05.1-.14.15-.24.15-.62,0-1.19-.1-1.71-.3s-.93-.54-1.23-1.01c-.23.41-.55.73-.96.96-.41.24-.93.35-1.55.35s-1.14-.12-1.6-.35c-.46-.24-.8-.55-1.01-.94-.08.12-.19.25-.31.39-.13.14-.31.28-.54.43-.23.14-.51.26-.83.34-.32.09-.7.13-1.14.13-.61,0-1.12-.12-1.55-.35-.43-.24-.74-.55-.94-.94-.08.12-.19.26-.32.4-.14.15-.31.29-.54.43-.22.14-.5.25-.82.33-.32.09-.7.13-1.13.13h-.79c-.38,0-.65-.05-.8-.15-.16-.1-.23-.27-.23-.52,0-.46.26-.69.77-.69h.87ZM347.79,150.8c0-.27.09-.5.27-.68.18-.18.41-.27.68-.27s.49.09.67.27c.18.18.26.41.26.68s-.09.5-.26.68c-.18.18-.4.27-.67.27s-.5-.09-.68-.27c-.18-.18-.27-.41-.27-.68ZM349.05,148.67c0-.27.09-.5.27-.68.18-.18.41-.27.68-.27s.49.09.67.27c.18.18.26.41.26.68s-.09.5-.26.68c-.18.18-.4.27-.67.27s-.5-.09-.68-.27-.27-.41-.27-.68ZM350.32,150.8c0-.27.09-.5.27-.68.18-.18.41-.27.68-.27s.49.09.67.27c.18.18.26.41.26.68s-.09.5-.26.68c-.18.18-.4.27-.67.27s-.5-.09-.68-.27c-.18-.18-.27-.41-.27-.68Z"/>
          <path class="cls-2" d="M358.24,161.03c.86,0,1.5-.19,1.9-.57.4-.38.61-1,.61-1.86v-4.86h1.66v5.35c0,.66.19,1.15.59,1.47.39.32.94.48,1.64.48.23,0,.38.05.47.15.08.1.12.29.12.56,0,.23-.03.4-.08.5-.05.1-.14.15-.24.15-.65,0-1.23-.1-1.76-.31-.53-.21-.94-.56-1.24-1.04-.61.9-1.74,1.36-3.4,1.36-.34,0-.57-.05-.69-.15-.12-.1-.18-.29-.18-.58,0-.42.2-.63.61-.63ZM359.4,150.8c0-.27.09-.5.27-.68.18-.18.41-.27.68-.27s.49.09.67.27c.18.18.26.41.26.68s-.09.5-.26.68c-.18.18-.4.27-.67.27s-.5-.09-.68-.27c-.18-.18-.27-.41-.27-.68ZM361.93,150.8c0-.27.09-.5.27-.68.18-.18.41-.27.68-.27s.49.09.67.27c.18.18.26.41.26.68s-.09.5-.26.68c-.18.18-.4.27-.67.27s-.5-.09-.68-.27c-.18-.18-.27-.41-.27-.68Z"/>
          <path class="cls-2" d="M365.52,161.03c.35,0,.64-.06.87-.18.23-.12.41-.28.55-.49.13-.2.23-.44.28-.71.05-.27.08-.55.08-.85v-3.18h1.66v3.46c0,.63.17,1.12.52,1.45.34.33.79.5,1.35.5.35,0,.64-.06.87-.18.23-.12.41-.28.55-.49s.23-.44.28-.71c.05-.27.08-.55.08-.85v-3.18h1.66v3.46c0,.62.17,1.1.51,1.44.34.34.79.51,1.36.51.38,0,.68-.09.9-.26.22-.18.39-.39.5-.64.11-.25.18-.51.21-.78.03-.27.05-.52.05-.75v-4.86h1.66v5.16c0,.34-.04.7-.11,1.09s-.22.77-.44,1.13c-.22.36-.53.67-.94.9-.41.24-.93.35-1.55.35s-1.12-.11-1.58-.34c-.46-.23-.8-.55-1.01-.95-.08.12-.2.26-.34.42-.15.16-.33.3-.55.42-.22.13-.49.24-.81.32-.32.09-.7.13-1.13.13-.61,0-1.12-.12-1.54-.35-.42-.24-.73-.55-.93-.94-.09.15-.21.29-.35.44s-.32.28-.54.4c-.22.13-.49.24-.81.32s-.7.13-1.13.13h-.77c-.38,0-.65-.05-.8-.15-.16-.1-.23-.27-.23-.52,0-.46.26-.69.77-.69h.87Z"/>
          <path class="cls-2" d="M388.4,161.03c.86,0,1.45-.19,1.76-.57.31-.38.47-1,.47-1.86v-11.08h1.66v11.57c0,.62.2,1.1.61,1.44.4.34.93.51,1.58.51.27,0,.44.06.51.17.07.11.1.29.1.54,0,.26-.03.43-.09.52-.06.09-.14.13-.23.13-.62,0-1.19-.1-1.71-.3s-.92-.54-1.2-1.01c-.27.43-.66.76-1.18.98-.51.22-1.18.33-2.01.33h-6.77v-1.36h6.5ZM384.7,166.96c-.12-.23-.21-.45-.27-.66-.06-.21-.09-.39-.09-.54,0-.58.18-1.06.55-1.45.36-.38.91-.58,1.64-.58.18,0,.37.01.58.04.21.03.4.07.56.12l-.2.87c-.12-.04-.26-.07-.42-.1-.16-.03-.31-.04-.48-.04-.39,0-.69.1-.89.31-.2.21-.3.47-.3.78s.1.61.3.86c.2.25.56.37,1.07.37h1.09v.91h-3.99v-.91h.85ZM385.02,149.76h1.66v10.31h-1.66v-10.31Z"/>
          <path class="cls-2" d="M394.42,161.03c.85,0,1.49-.19,1.9-.57.42-.38.63-1,.63-1.86v-11.1h1.66v11.4c0,2.32-1.31,3.48-3.93,3.48-.32,0-.55-.05-.69-.14-.13-.09-.2-.27-.2-.53,0-.2.04-.37.13-.5s.25-.19.5-.19Z"/>
        </g>
        <g>
          <path class="cls-2" d="M9.89,149.78c-.35-.2-.77-.36-1.25-.47-.48-.11-.98-.16-1.49-.16-.93.01-1.73.17-2.4.47-.67.3-1.22.73-1.66,1.28-.44.55-.77,1.19-.99,1.92-.22.74-.33,1.53-.33,2.38s.11,1.58.34,2.3c.23.72.56,1.35,1,1.88.44.53,1,.96,1.67,1.28.68.32,1.45.47,2.33.47.62,0,1.17-.06,1.63-.17.47-.12.91-.29,1.35-.52l.51,1.38c-.51.28-1.08.49-1.69.61-.61.12-1.25.18-1.89.18-1.09,0-2.08-.18-2.95-.55-.87-.36-1.61-.88-2.22-1.56-.61-.68-1.07-1.46-1.38-2.36-.31-.9-.47-1.89-.47-2.97s.16-2.1.47-3.01c.31-.91.77-1.71,1.38-2.38.61-.68,1.35-1.2,2.24-1.57.88-.37,1.9-.56,3.05-.56.61,0,1.21.06,1.79.17.59.12,1.09.29,1.51.54l-.55,1.4Z"/>
          <path class="cls-2" d="M21.78,157.01c0,.88-.11,1.66-.34,2.35-.23.69-.56,1.28-.99,1.76-.43.49-.95.86-1.56,1.11s-1.3.38-2.07.38-1.46-.13-2.07-.38-1.13-.63-1.56-1.11c-.43-.49-.76-1.07-.99-1.76-.23-.69-.34-1.47-.34-2.35s.12-1.64.35-2.34c.24-.7.56-1.28.98-1.75.42-.47.94-.84,1.56-1.09.62-.26,1.31-.38,2.07-.38s1.46.13,2.08.38c.61.26,1.13.62,1.56,1.09.43.47.75,1.06.98,1.75.23.7.34,1.48.34,2.34ZM20.05,157.01c0-.62-.06-1.19-.19-1.7-.13-.51-.32-.96-.59-1.33s-.6-.66-1.01-.87c-.41-.21-.89-.31-1.45-.31s-1.04.1-1.45.31c-.41.21-.75.5-1.01.87s-.46.81-.59,1.33c-.13.51-.19,1.08-.19,1.7s.07,1.19.2,1.71c.13.52.33.97.6,1.35s.6.67,1,.88c.41.21.88.31,1.44.31s1.04-.1,1.45-.31c.41-.21.75-.5,1.01-.88s.46-.83.59-1.35c.13-.52.19-1.09.19-1.71Z"/>
          <path class="cls-2" d="M26.25,151.69v1.58h.02c.32-.57.78-1.01,1.37-1.34.59-.32,1.25-.49,1.99-.49,1.19,0,2.12.35,2.81,1.05.68.7,1.02,1.65,1.02,2.84v7.05h-1.72v-6.4c0-.49-.04-.93-.12-1.33-.08-.4-.22-.73-.41-1-.19-.27-.45-.48-.77-.63-.32-.15-.73-.22-1.21-.22-.36,0-.72.07-1.07.2-.35.14-.66.34-.93.62-.27.28-.49.64-.66,1.09-.17.45-.25.99-.25,1.61v6.06h-1.72v-10.7h1.66Z"/>
          <path class="cls-2" d="M42.56,153.35c-.43-.2-.87-.34-1.31-.43s-.89-.12-1.35-.12c-.24,0-.48.02-.72.07-.24.05-.45.12-.65.23-.2.11-.35.26-.48.45-.12.2-.18.44-.18.72,0,.23.04.43.11.61.07.18.2.34.38.5s.42.3.7.45c.28.14.64.29,1.07.45.51.19.97.38,1.38.59.4.2.76.43,1.05.68.3.25.52.54.68.88.16.34.23.73.23,1.18,0,.57-.11,1.05-.34,1.44s-.53.7-.9.93c-.37.23-.79.39-1.26.5-.47.1-.94.15-1.41.15-.53,0-1.11-.06-1.76-.18-.65-.12-1.26-.32-1.82-.59l.45-1.36c.57.26,1.13.45,1.68.58.55.13,1.05.19,1.5.19.62.01,1.14-.1,1.55-.33.41-.24.62-.64.64-1.23-.01-.5-.24-.91-.67-1.23-.43-.32-1.07-.62-1.92-.92-.96-.34-1.7-.75-2.21-1.23-.51-.49-.78-1.11-.79-1.86.01-.54.12-1,.33-1.37s.49-.68.84-.92c.35-.24.74-.43,1.17-.55.43-.12.88-.18,1.34-.18.57,0,1.12.05,1.66.14.54.09,1.01.24,1.4.45l-.41,1.32Z"/>
          <path class="cls-2" d="M53.29,162.38v-1.58h-.02c-.32.57-.78,1.01-1.37,1.34-.59.32-1.25.49-1.99.49-1.22-.01-2.15-.37-2.82-1.06-.66-.7-1-1.64-1.01-2.83v-7.05h1.72v6.4c0,.5.04.95.12,1.34.08.39.22.72.41.99.19.27.45.48.77.63s.73.22,1.21.22c.36,0,.72-.07,1.07-.2.35-.13.66-.34.93-.62.27-.28.49-.64.66-1.09.17-.45.25-.99.25-1.61v-6.06h1.72v10.7h-1.66Z"/>
          <path class="cls-2" d="M60.04,147.49v14.89h-1.72v-14.89h1.72Z"/>
          <path class="cls-2" d="M62.11,151.69h1.9v-2.69h1.72v2.69h2.47v1.36h-2.47v6.4c0,.36.01.66.04.88.03.22.09.4.18.53.09.13.23.21.42.25.18.04.42.06.72.06.23,0,.43,0,.6-.02.17-.01.35-.03.54-.06v1.3c-.19.03-.44.06-.74.09-.3.03-.6.05-.88.05-.55,0-1-.06-1.34-.19-.34-.13-.6-.32-.79-.59-.19-.26-.31-.58-.37-.94-.06-.36-.09-.78-.09-1.26v-6.5h-1.9v-1.36Z"/>
          <path class="cls-2" d="M76.61,155.45c.03-1.77-.84-2.65-2.59-2.65-.43,0-.88.05-1.36.16-.47.11-.93.26-1.38.47l-.38-1.36c.42-.18.92-.32,1.51-.45.59-.12,1.15-.18,1.69-.18,1.3-.01,2.32.3,3.08.93.76.63,1.14,1.6,1.15,2.9v4.68c0,.35.02.75.05,1.21s.08.86.15,1.23h-1.52c-.12-.45-.2-.98-.24-1.6h-.04c-.3.53-.72.96-1.28,1.31-.55.34-1.27.52-2.15.54-.45,0-.88-.06-1.3-.18-.42-.12-.79-.31-1.12-.58-.33-.26-.6-.6-.8-1-.2-.41-.3-.89-.3-1.46.01-.77.2-1.39.55-1.87.35-.48.85-.85,1.49-1.12.64-.27,1.37-.45,2.19-.55.82-.09,1.68-.14,2.6-.14v-.26ZM76.12,156.95c-.61,0-1.19.03-1.75.1s-1.05.18-1.48.34c-.43.16-.77.4-1.04.72-.27.32-.41.71-.41,1.19-.01.57.14,1.04.48,1.41.33.37.83.56,1.49.56.53,0,.99-.09,1.4-.27.41-.18.74-.43,1-.75s.46-.68.6-1.08c.13-.41.2-.84.2-1.3v-.91h-.49Z"/>
          <path class="cls-2" d="M83.33,151.69v1.58h.02c.32-.57.78-1.01,1.37-1.34.59-.32,1.25-.49,1.99-.49,1.19,0,2.12.35,2.81,1.05.68.7,1.02,1.65,1.02,2.84v7.05h-1.72v-6.4c0-.49-.04-.93-.12-1.33s-.22-.73-.41-1c-.19-.27-.45-.48-.77-.63-.32-.15-.73-.22-1.21-.22-.36,0-.72.07-1.07.2-.35.14-.66.34-.93.62-.27.28-.49.64-.66,1.09-.17.45-.25.99-.25,1.61v6.06h-1.72v-10.7h1.66Z"/>
          <path class="cls-2" d="M92.49,151.69h1.9v-2.69h1.72v2.69h2.47v1.36h-2.47v6.4c0,.36.01.66.04.88.03.22.09.4.18.53.09.13.23.21.42.25.18.04.42.06.72.06.23,0,.43,0,.6-.02.17-.01.35-.03.54-.06v1.3c-.19.03-.44.06-.74.09-.3.03-.6.05-.88.05-.55,0-1-.06-1.34-.19-.34-.13-.6-.32-.79-.59-.19-.26-.31-.58-.37-.94s-.09-.78-.09-1.26v-6.5h-1.9v-1.36Z"/>
          <path class="cls-2" d="M106.33,147.92h7.94v1.48h-6.18v4.8h5.69v1.48h-5.69v5.23h6.34v1.48h-8.1v-14.46Z"/>
          <path class="cls-2" d="M118.82,151.69v1.58h.02c.32-.57.78-1.01,1.37-1.34.59-.32,1.25-.49,1.99-.49,1.19,0,2.12.35,2.81,1.05.68.7,1.02,1.65,1.02,2.84v7.05h-1.72v-6.4c0-.49-.04-.93-.12-1.33s-.22-.73-.41-1c-.19-.27-.45-.48-.77-.63-.32-.15-.73-.22-1.21-.22-.36,0-.72.07-1.07.2-.35.14-.66.34-.93.62-.27.28-.49.64-.66,1.09-.17.45-.25.99-.25,1.61v6.06h-1.72v-10.7h1.66Z"/>
          <path class="cls-2" d="M136.67,160.44h-.04c-.42.61-.91,1.06-1.48,1.36-.57.3-1.19.45-1.86.45-.72,0-1.35-.14-1.91-.42-.56-.28-1.04-.66-1.43-1.14-.39-.49-.69-1.06-.9-1.72-.21-.66-.31-1.37-.31-2.13s.11-1.46.32-2.12c.22-.66.52-1.23.92-1.71.4-.49.88-.87,1.45-1.14.57-.28,1.2-.42,1.88-.42s1.32.14,1.88.41c.57.27,1.05.7,1.44,1.28h.04v-1.44h1.66v10.09c0,.78-.14,1.46-.41,2.04-.27.57-.63,1.05-1.09,1.42-.46.37-.99.65-1.6.83-.61.18-1.26.27-1.94.27-.55,0-1.13-.04-1.72-.13-.59-.09-1.13-.23-1.62-.42l.32-1.34c.43.18.91.31,1.45.4.53.09,1.06.13,1.57.13,1.11,0,1.95-.29,2.52-.86.57-.57.86-1.38.86-2.42v-1.26ZM130.45,156.83c0,.55.06,1.08.19,1.57.13.49.32.92.57,1.29.25.36.57.66.95.87.38.22.83.32,1.35.32s.95-.1,1.35-.31c.4-.21.74-.5,1.01-.86.28-.36.49-.79.63-1.29.14-.49.21-1.02.21-1.59s-.07-1.1-.21-1.59c-.14-.49-.35-.92-.63-1.29-.28-.36-.61-.65-1.01-.85-.4-.2-.85-.31-1.35-.31s-.96.1-1.34.31c-.38.21-.7.5-.95.86-.26.36-.45.79-.58,1.29-.13.49-.19,1.02-.19,1.57Z"/>
          <path class="cls-2" d="M143.43,147.66v1.78h-1.84v-1.78h1.84ZM143.37,151.69v10.7h-1.72v-10.7h1.72Z"/>
          <path class="cls-2" d="M148.4,151.69v1.58h.02c.32-.57.78-1.01,1.37-1.34.59-.32,1.25-.49,1.99-.49,1.19,0,2.12.35,2.81,1.05.68.7,1.02,1.65,1.02,2.84v7.05h-1.72v-6.4c0-.49-.04-.93-.12-1.33s-.22-.73-.41-1c-.19-.27-.45-.48-.77-.63-.32-.15-.73-.22-1.21-.22-.36,0-.72.07-1.07.2-.35.14-.66.34-.93.62-.27.28-.49.64-.66,1.09-.17.45-.25.99-.25,1.61v6.06h-1.72v-10.7h1.66Z"/>
          <path class="cls-2" d="M159.96,157.5c.05,1.12.41,2.03,1.07,2.73.66.7,1.58,1.04,2.75,1.04.47,0,.96-.04,1.46-.13s.96-.22,1.38-.4l.28,1.32c-.45.19-.95.33-1.51.42-.56.09-1.12.14-1.69.14-.89-.01-1.67-.15-2.32-.42-.66-.26-1.22-.65-1.69-1.16-.47-.51-.83-1.11-1.05-1.79-.23-.68-.34-1.42-.34-2.2s.11-1.56.33-2.24c.22-.68.54-1.28.96-1.78.42-.51.92-.9,1.52-1.18.59-.28,1.26-.42,2.01-.42s1.4.12,1.96.38c.56.25,1.02.6,1.39,1.05.37.45.64,1,.82,1.65.18.65.27,1.36.27,2.15v.83h-7.59ZM163.14,152.8c-.93,0-1.67.31-2.22.91-.55.61-.87,1.42-.96,2.43h6.04v-.08c-.02-1.03-.28-1.82-.79-2.39-.51-.57-1.2-.86-2.07-.87Z"/>
          <path class="cls-2" d="M171.35,157.5c.05,1.12.41,2.03,1.07,2.73.66.7,1.58,1.04,2.75,1.04.47,0,.96-.04,1.46-.13.5-.09.96-.22,1.38-.4l.28,1.32c-.45.19-.95.33-1.51.42-.56.09-1.12.14-1.69.14-.89-.01-1.66-.15-2.32-.42-.66-.26-1.22-.65-1.69-1.16-.47-.51-.82-1.11-1.05-1.79s-.34-1.42-.34-2.2.11-1.56.33-2.24.54-1.28.96-1.78c.42-.51.92-.9,1.52-1.18.59-.28,1.26-.42,2.01-.42s1.39.12,1.96.38c.56.25,1.02.6,1.39,1.05s.64,1,.82,1.65c.18.65.27,1.36.27,2.15v.83h-7.59ZM174.53,152.8c-.93,0-1.67.31-2.22.91-.55.61-.87,1.42-.96,2.43h6.04v-.08c-.01-1.03-.28-1.82-.79-2.39-.51-.57-1.2-.86-2.07-.87Z"/>
          <path class="cls-2" d="M186.88,152.86c-.24-.04-.54-.06-.89-.06s-.7.06-1,.17c-.3.12-.57.3-.81.57-.24.26-.42.6-.55,1.02-.13.42-.19.94-.19,1.56v6.26h-1.72v-10.7h1.66v1.44h.02c.26-.57.61-.99,1.07-1.27.46-.28,1.03-.42,1.72-.42.09,0,.22,0,.38.01s.29.02.38.03l-.08,1.38Z"/>
          <path class="cls-2" d="M190.63,147.66v1.78h-1.84v-1.78h1.84ZM190.57,151.69v10.7h-1.72v-10.7h1.72Z"/>
          <path class="cls-2" d="M195.59,151.69v1.58h.02c.32-.57.78-1.01,1.37-1.34.59-.32,1.25-.49,1.99-.49,1.19,0,2.12.35,2.81,1.05.68.7,1.02,1.65,1.02,2.84v7.05h-1.72v-6.4c0-.49-.04-.93-.12-1.33s-.22-.73-.41-1c-.19-.27-.45-.48-.77-.63-.32-.15-.73-.22-1.21-.22-.36,0-.72.07-1.07.2-.35.14-.66.34-.93.62-.27.28-.49.64-.66,1.09-.17.45-.25.99-.25,1.61v6.06h-1.72v-10.7h1.66Z"/>
          <path class="cls-2" d="M213.44,160.44h-.04c-.42.61-.91,1.06-1.48,1.36-.57.3-1.19.45-1.86.45-.71,0-1.35-.14-1.91-.42-.56-.28-1.04-.66-1.43-1.14-.39-.49-.69-1.06-.9-1.72-.21-.66-.31-1.37-.31-2.13s.11-1.46.32-2.12c.21-.66.52-1.23.92-1.71.4-.49.88-.87,1.45-1.14.57-.28,1.2-.42,1.88-.42s1.32.14,1.88.41c.57.27,1.05.7,1.44,1.28h.04v-1.44h1.66v10.09c0,.78-.14,1.46-.4,2.04-.27.57-.64,1.05-1.09,1.42s-.99.65-1.6.83c-.61.18-1.25.27-1.94.27-.55,0-1.13-.04-1.72-.13-.59-.09-1.13-.23-1.62-.42l.32-1.34c.43.18.91.31,1.45.4.53.09,1.06.13,1.57.13,1.11,0,1.95-.29,2.52-.86.57-.57.86-1.38.86-2.42v-1.26ZM207.22,156.83c0,.55.06,1.08.19,1.57.13.49.32.92.57,1.29s.57.66.95.87c.38.22.83.32,1.35.32s.95-.1,1.35-.31.74-.5,1.01-.86c.28-.36.49-.79.63-1.29.14-.49.21-1.02.21-1.59s-.07-1.1-.21-1.59c-.14-.49-.35-.92-.63-1.29-.28-.36-.62-.65-1.01-.85-.4-.2-.85-.31-1.35-.31s-.96.1-1.34.31c-.38.21-.7.5-.95.86-.26.36-.45.79-.58,1.29-.13.49-.19,1.02-.19,1.57Z"/>
        </g>
      </g>
      <g>
        <path class="cls-2" d="M0,89.64h20.72v4.66H5.23v11.15h14.97v4.68H5.23v11.36h15.99v4.66H0v-36.5Z"/>
        <path class="cls-2" d="M55.86,89.64h4.89v36.55h-5.26v-28.44l-11.24,14.13h-.97l-11.37-14.13v28.44h-5.23v-36.55h4.95l12.15,15.01,12.07-15.01Z"/>
        <path class="cls-2" d="M80.3,89.43h3.68l16.39,36.76h-5.36l-4.87-10.83h-15.59l-4.57,10.83h-5.38l15.7-36.76ZM87.99,110.7l-5.9-13.24-5.47,13.24h11.37Z"/>
        <path class="cls-2" d="M116.04,89.43h3.68l16.39,36.76h-5.36l-4.87-10.83h-15.59l-4.57,10.83h-5.38l15.7-36.76ZM123.73,110.7l-5.9-13.24-5.47,13.24h11.37Z"/>
        <path class="cls-2" d="M140.26,126.19v-36.55h9.16c3.7,0,6.63.91,8.8,2.75,2.17,1.83,3.26,4.31,3.26,7.43,0,2.13-.53,3.97-1.6,5.52-1.06,1.55-2.59,2.71-4.58,3.48,1.17.77,2.31,1.81,3.43,3.14,1.12,1.33,2.69,3.64,4.71,6.93,1.27,2.08,2.29,3.64,3.06,4.68l1.94,2.62h-6.23l-1.59-2.41c-.05-.09-.16-.24-.31-.45l-1.02-1.44-1.62-2.67-1.75-2.85c-1.08-1.5-2.07-2.7-2.97-3.58-.9-.89-1.71-1.53-2.44-1.92-.72-.39-1.94-.59-3.65-.59h-1.36v15.91h-5.23ZM147.07,94.08h-1.57v11.54h1.99c2.65,0,4.47-.23,5.45-.68.99-.45,1.75-1.14,2.3-2.05.55-.91.82-1.96.82-3.13s-.31-2.19-.92-3.13c-.61-.93-1.47-1.59-2.58-1.98-1.11-.38-2.94-.58-5.51-.58Z"/>
        <path class="cls-2" d="M207.11,108.19h12.27v15.49c-4.5,1.95-8.97,2.93-13.4,2.93-6.05,0-10.89-1.77-14.51-5.3-3.62-3.53-5.43-7.89-5.43-13.07,0-5.46,1.87-10,5.62-13.63,3.75-3.63,8.45-5.44,14.1-5.44,2.06,0,4.01.22,5.86.67,1.85.44,4.19,1.26,7.01,2.45v5.34c-4.36-2.53-8.69-3.79-12.98-3.79-3.99,0-7.36,1.36-10.1,4.08-2.74,2.72-4.11,6.06-4.11,10.02s1.37,7.54,4.11,10.18c2.74,2.63,6.26,3.95,10.57,3.95,2.09,0,4.6-.48,7.51-1.44l.5-.16v-7.61h-7.04v-4.66Z"/>
        <path class="cls-2" d="M252.46,89.64h5.26v20.75c0,2.81-.21,4.93-.62,6.36s-.91,2.62-1.52,3.57c-.6.95-1.34,1.8-2.21,2.55-2.89,2.5-6.68,3.74-11.35,3.74s-8.58-1.24-11.46-3.72c-.87-.77-1.61-1.63-2.21-2.58-.6-.95-1.1-2.11-1.49-3.49-.39-1.38-.59-3.54-.59-6.49v-20.7h5.26v20.75c0,3.44.39,5.83,1.18,7.17.78,1.34,1.98,2.42,3.58,3.23,1.6.81,3.5,1.22,5.68,1.22,3.1,0,5.63-.81,7.59-2.43,1.03-.87,1.77-1.9,2.22-3.09.45-1.19.68-3.22.68-6.1v-20.75Z"/>
        <path class="cls-2" d="M264.96,89.64h5.23v31.79h16.46v4.76h-21.69v-36.55Z"/>
        <path class="cls-2" d="M291.28,89.64h19.49v4.66h-14.26v10.2h14.26v4.66h-14.26v17.03h-5.23v-36.55Z"/>
      </g>
    </g>
  </g>
</svg>
